<?xml version="1.0" encoding="UTF-8" standalone="no"?>
<svg width="195px" height="20px" viewBox="0 0 195 20" version="1.1" xmlns="http://www.w3.org/2000/svg" xmlns:xlink="http://www.w3.org/1999/xlink" xmlns:sketch="http://www.bohemiancoding.com/sketch/ns">
    <!-- Generator: Sketch 3.4 (15588) - http://www.bohemiancoding.com/sketch -->
    <title>BOOK SESSION - Codementor</title>
    <desc>Codementor Badge For GitHub.</desc>
    <defs></defs>
    <g id="Page-1" stroke="none" stroke-width="1" fill="none" fill-rule="evenodd" sketch:type="MSPage">
        <g id="Badge-For-Github-2" sketch:type="MSLayerGroup">
            <g id="Group" sketch:type="MSShapeGroup">
                <path d="M9.5,0 L2.22898489,0 C1.00247329,0 0,0.992479891 0,2.21676588 L0,17.7832341 C0,19.0081969 0.997950529,20 2.22898489,20 L9.5,20 L93,20 L93,0 L9.5,0 Z" id="Rectangle-175" fill="#073648"></path>
                <path d="M93,0 L188.2,0 L188.2,20 L93,20 L93,0 Z M188.2,0 L192.773426,0 C194.003129,0 195,0.99180311 195,2.21676588 L195,17.7832341 C195,19.0075201 193.996637,20 192.773426,20 L188.2,20 L188.2,0 Z" id="Rectangle-180" fill="#149290"></path>
                <path d="M20.5831328,10.2548476 C20.5831328,9.84856676 20.6533075,9.46445241 20.7936591,9.10249307 C20.9340107,8.74053374 21.1371481,8.42290072 21.4030774,8.14958449 C21.6690067,7.87626825 21.9903331,7.65835723 22.3670663,7.49584488 C22.7437995,7.33333252 23.1685413,7.25207756 23.6413046,7.25207756 C24.2765801,7.25207756 24.8176643,7.38873363 25.2645733,7.66204986 C25.7114822,7.93536609 26.0457356,8.29362659 26.2673433,8.73684211 L24.8158198,9.1800554 C24.6902421,8.96583457 24.5240387,8.80147795 24.3172048,8.68698061 C24.1103709,8.57248327 23.8813797,8.51523546 23.6302242,8.51523546 C23.4160034,8.51523546 23.2165594,8.55770964 23.0318863,8.64265928 C22.8472131,8.72760892 22.6865499,8.84579795 22.5498918,8.99722992 C22.4132337,9.14866188 22.3061249,9.33148554 22.2285622,9.54570637 C22.1509995,9.7599272 22.1122187,9.99630526 22.1122187,10.2548476 C22.1122187,10.51339 22.1528462,10.7497681 22.2341023,10.9639889 C22.3153585,11.1782098 22.424314,11.3628801 22.5609721,11.5180055 C22.6976303,11.673131 22.8582935,11.7931667 23.0429666,11.8781163 C23.2276397,11.963066 23.4233903,12.0055402 23.6302242,12.0055402 C23.8961535,12.0055402 24.1417651,11.9390588 24.3670663,11.8060942 C24.5923675,11.6731295 24.7493374,11.5106196 24.8379805,11.3185596 L26.289504,11.7617729 C26.090057,12.2049884 25.7613438,12.5669423 25.3033544,12.8476454 C24.8453651,13.1283486 24.2950474,13.2686981 23.6523849,13.2686981 C23.1796217,13.2686981 22.7548798,13.1874431 22.3781467,13.0249307 C22.0014135,12.8624184 21.680087,12.6426607 21.4141577,12.365651 C21.1482284,12.0886413 20.9432443,11.7673148 20.7991993,11.401662 C20.6551542,11.0360093 20.5831328,10.6537416 20.5831328,10.2548476 L20.5831328,10.2548476 Z M29.9416487,13.2686981 C29.4688855,13.2686981 29.0441437,13.1874431 28.6674105,13.0249307 C28.2906773,12.8624184 27.9711976,12.6426607 27.7089617,12.365651 C27.4467259,12.0886413 27.2454352,11.7691616 27.1050836,11.4072022 C26.964732,11.0452429 26.8945573,10.6648219 26.8945573,10.265928 C26.8945573,9.85964709 26.964732,9.47553274 27.1050836,9.11357341 C27.2454352,8.75161407 27.4467259,8.43213435 27.7089617,8.15512465 C27.9711976,7.87811496 28.2906773,7.65835723 28.6674105,7.49584488 C29.0441437,7.33333252 29.4688855,7.25207756 29.9416487,7.25207756 C30.4144119,7.25207756 30.837307,7.33333252 31.2103468,7.49584488 C31.5833865,7.65835723 31.9010195,7.87811496 32.1632554,8.15512465 C32.4254912,8.43213435 32.6267819,8.75161407 32.7671335,9.11357341 C32.907485,9.47553274 32.9776598,9.85964709 32.9776598,10.265928 C32.9776598,10.6648219 32.907485,11.0452429 32.7671335,11.4072022 C32.6267819,11.7691616 32.4273379,12.0886413 32.1687955,12.365651 C31.9102531,12.6426607 31.5926201,12.8624184 31.2158869,13.0249307 C30.8391537,13.1874431 30.4144119,13.2686981 29.9416487,13.2686981 L29.9416487,13.2686981 Z M28.4236432,10.265928 C28.4236432,10.5244704 28.4624239,10.7590017 28.5399867,10.9695291 C28.6175494,11.1800565 28.7246582,11.3628801 28.8613163,11.5180055 C28.9979744,11.673131 29.1586376,11.7931667 29.3433108,11.8781163 C29.5279839,11.963066 29.7274279,12.0055402 29.9416487,12.0055402 C30.1558695,12.0055402 30.3553135,11.963066 30.5399867,11.8781163 C30.7246598,11.7931667 30.885323,11.673131 31.0219811,11.5180055 C31.1586392,11.3628801 31.265748,11.1782098 31.3433108,10.9639889 C31.4208735,10.7497681 31.4596542,10.51339 31.4596542,10.2548476 C31.4596542,10.0036922 31.4208735,9.77100753 31.3433108,9.5567867 C31.265748,9.34256587 31.1586392,9.15789551 31.0219811,9.00277008 C30.885323,8.84764465 30.7246598,8.72760892 30.5399867,8.64265928 C30.3553135,8.55770964 30.1558695,8.51523546 29.9416487,8.51523546 C29.7274279,8.51523546 29.5279839,8.55955634 29.3433108,8.64819945 C29.1586376,8.73684255 28.9979744,8.85872499 28.8613163,9.01385042 C28.7246582,9.16897584 28.6175494,9.3536462 28.5399867,9.56786704 C28.4624239,9.78208787 28.4236432,10.0147725 28.4236432,10.265928 L28.4236432,10.265928 Z M36.4968405,13.2686981 C36.0979465,13.2686981 35.7286058,13.1911365 35.3888073,13.0360111 C35.0490087,12.8808857 34.7572295,12.666668 34.513461,12.3933518 C34.2696925,12.1200356 34.079482,11.8005558 33.9428239,11.434903 C33.8061658,11.0692502 33.7378377,10.6759024 33.7378377,10.2548476 C33.7378377,9.83379291 33.8024724,9.44229175 33.9317435,9.08033241 C34.0610147,8.71837307 34.240145,8.40074006 34.4691397,8.12742382 C34.6981344,7.85410759 34.9714465,7.63988997 35.2890843,7.48476454 C35.6067221,7.32963911 35.9539023,7.25207756 36.3306355,7.25207756 C36.7590772,7.25207756 37.1450382,7.35549296 37.4885303,7.56232687 C37.8320223,7.76916078 38.0997943,8.0387795 38.2918544,8.37119114 L38.2918544,5.06925208 L39.7766189,5.06925208 L39.7766189,11.4515235 C39.7766189,11.606649 39.8024727,11.7174512 39.8541812,11.7839335 C39.9058897,11.8504158 39.9945315,11.8873499 40.1201092,11.8947368 L40.1201092,13.1578947 C39.8615668,13.2096032 39.6510426,13.2354571 39.4885303,13.2354571 C39.2226009,13.2354571 39.0046899,13.1689757 38.8347906,13.0360111 C38.6648914,12.9030464 38.5688628,12.7294563 38.546702,12.5152355 L38.513461,12.1495845 C38.2992402,12.5189307 38.0093077,12.797783 37.6436549,12.9861496 C37.2780021,13.1745162 36.8957345,13.2686981 36.4968405,13.2686981 L36.4968405,13.2686981 Z M36.8846521,12.0055402 C37.0250037,12.0055402 37.1690466,11.981533 37.3167851,11.933518 C37.4645236,11.885503 37.6011797,11.817175 37.7267574,11.7285319 C37.8523351,11.6398888 37.964984,11.5364734 38.0647075,11.4182825 C38.164431,11.3000917 38.2401459,11.1708225 38.2918544,11.0304709 L38.2918544,9.64542936 C38.232759,9.48291701 38.1496573,9.33333402 38.0425469,9.1966759 C37.9354365,9.06001778 37.813554,8.94182875 37.6768959,8.84210526 C37.5402378,8.74238177 37.3961949,8.66297352 37.2447629,8.60387812 C37.093331,8.54478271 36.943748,8.51523546 36.7960095,8.51523546 C36.5744017,8.51523546 36.3694176,8.56324975 36.181051,8.65927978 C35.9926844,8.75530981 35.8320212,8.88642576 35.6990566,9.05263158 C35.5660919,9.2188374 35.4626765,9.40904787 35.3888073,9.6232687 C35.314938,9.83748953 35.2780039,10.059094 35.2780039,10.2880886 C35.2780039,10.5318572 35.3186314,10.757155 35.3998876,10.9639889 C35.4811438,11.1708228 35.591946,11.3517998 35.7322976,11.5069252 C35.8726491,11.6620506 36.0406992,11.7839331 36.2364527,11.8725762 C36.4322062,11.9612193 36.6482705,12.0055402 36.8846521,12.0055402 L36.8846521,12.0055402 Z M44.0492622,13.2686981 C43.5838859,13.2686981 43.1628375,13.1892898 42.7861043,13.0304709 C42.4093711,12.871652 42.0880447,12.6555877 41.8221154,12.3822715 C41.5561861,12.1089552 41.351202,11.7913222 41.207157,11.4293629 C41.0631119,11.0674035 40.9910905,10.6869826 40.9910905,10.2880886 C40.9910905,9.87442083 41.0612652,9.48476637 41.2016168,9.11911357 C41.3419684,8.75346078 41.5451058,8.43213435 41.8110351,8.15512465 C42.0769644,7.87811496 42.4001375,7.65835723 42.7805642,7.49584488 C43.1609908,7.33333252 43.5875793,7.25207756 44.0603425,7.25207756 C44.5331058,7.25207756 44.9560009,7.33333252 45.3290406,7.49584488 C45.7020803,7.65835723 46.0197134,7.87626825 46.2819492,8.14958449 C46.544185,8.42290072 46.743629,8.74053374 46.8802871,9.10249307 C47.0169453,9.46445241 47.0852733,9.84117994 47.0852733,10.232687 C47.0852733,10.328717 47.0834266,10.4210522 47.0797331,10.5096953 C47.0760397,10.5983384 47.0668061,10.6722065 47.0520323,10.7313019 L42.5644977,10.7313019 C42.5866584,10.9602966 42.6420596,11.163434 42.7307027,11.3407202 C42.8193458,11.5180064 42.9338414,11.6694361 43.074193,11.7950139 C43.2145445,11.9205916 43.3733611,12.0166202 43.5506473,12.0831025 C43.7279335,12.1495848 43.9126038,12.1828255 44.1046639,12.1828255 C44.4001409,12.1828255 44.6789931,12.110804 44.941229,11.966759 C45.2034648,11.822714 45.3825951,11.6325035 45.4786251,11.3961219 L46.7528633,11.7506925 C46.5386425,12.193908 46.1970023,12.5577086 45.7279326,12.8421053 C45.2588628,13.1265019 44.6993116,13.2686981 44.0492622,13.2686981 L44.0492622,13.2686981 Z M45.5561874,9.76731302 C45.5192528,9.33148443 45.3585896,8.98245745 45.074193,8.72022161 C44.7897963,8.45798576 44.4444628,8.32686981 44.0381819,8.32686981 C43.8387349,8.32686981 43.6522178,8.36195717 43.4786251,8.43213296 C43.3050324,8.50230875 43.151756,8.60018404 43.0187913,8.72576177 C42.8858266,8.8513395 42.7768711,9.0027692 42.6919215,9.1800554 C42.6069719,9.35734161 42.5571109,9.55309219 42.542337,9.76731302 L45.5561874,9.76731302 Z M57.1307698,13.1578947 L55.6460053,13.1578947 L55.6460053,9.90027701 C55.6460053,9.43490072 55.566597,9.09510726 55.4077781,8.88088643 C55.2489592,8.6666656 55.0292015,8.55955679 54.7484983,8.55955679 C54.4530213,8.55955679 54.1760158,8.67220571 53.9174734,8.89750693 C53.658931,9.12280814 53.4742607,9.41643402 53.3634568,9.77839335 L53.3634568,13.1578947 L51.8786922,13.1578947 L51.8786922,9.90027701 C51.8786922,9.43490072 51.799284,9.09510726 51.6404651,8.88088643 C51.4816462,8.6666656 51.2618885,8.55955679 50.9811853,8.55955679 C50.6930952,8.55955679 50.4179364,8.670359 50.1557006,8.89196676 C49.8934647,9.11357452 49.7069476,9.40535368 49.5961438,9.76731302 L49.5961438,13.1578947 L48.1113792,13.1578947 L48.1113792,7.35180055 L49.4520994,7.35180055 L49.4520994,8.4265928 C49.6663203,8.04985961 49.9599461,7.75992715 50.3329859,7.5567867 C50.7060256,7.35364626 51.1326141,7.25207756 51.6127643,7.25207756 C52.1003013,7.25207756 52.4770289,7.37026659 52.7429582,7.6066482 C53.0088875,7.84302981 53.1787842,8.13480898 53.2526535,8.48199446 C53.4890351,8.0831005 53.788201,7.7783944 54.1501604,7.56786704 C54.5121197,7.35733967 54.9257813,7.25207756 55.3911576,7.25207756 C55.74573,7.25207756 56.0375092,7.31855889 56.2665039,7.45152355 C56.4954986,7.5844882 56.6727821,7.75807834 56.7983598,7.97229917 C56.9239376,8.18652 57.0107326,8.43028488 57.0587476,8.70360111 C57.1067627,8.97691734 57.1307698,9.25392288 57.1307698,9.53462604 L57.1307698,13.1578947 Z M61.2372081,13.2686981 C60.7718318,13.2686981 60.3507834,13.1892898 59.9740502,13.0304709 C59.5973171,12.871652 59.2759906,12.6555877 59.0100613,12.3822715 C58.744132,12.1089552 58.5391479,11.7913222 58.3951029,11.4293629 C58.2510578,11.0674035 58.1790364,10.6869826 58.1790364,10.2880886 C58.1790364,9.87442083 58.2492111,9.48476637 58.3895627,9.11911357 C58.5299143,8.75346078 58.7330517,8.43213435 58.998981,8.15512465 C59.2649103,7.87811496 59.5880834,7.65835723 59.9685101,7.49584488 C60.3489367,7.33333252 60.7755253,7.25207756 61.2482885,7.25207756 C61.7210517,7.25207756 62.1439468,7.33333252 62.5169865,7.49584488 C62.8900263,7.65835723 63.2076593,7.87626825 63.4698951,8.14958449 C63.732131,8.42290072 63.931575,8.74053374 64.0682331,9.10249307 C64.2048912,9.46445241 64.2732192,9.84117994 64.2732192,10.232687 C64.2732192,10.328717 64.2713725,10.4210522 64.2676791,10.5096953 C64.2639856,10.5983384 64.2547521,10.6722065 64.2399782,10.7313019 L59.7524436,10.7313019 C59.7746044,10.9602966 59.8300055,11.163434 59.9186486,11.3407202 C60.0072917,11.5180064 60.1217873,11.6694361 60.2621389,11.7950139 C60.4024905,11.9205916 60.561307,12.0166202 60.7385932,12.0831025 C60.9158794,12.1495848 61.1005497,12.1828255 61.2926098,12.1828255 C61.5880868,12.1828255 61.8669391,12.110804 62.1291749,11.966759 C62.3914107,11.822714 62.570541,11.6325035 62.666571,11.3961219 L63.9408092,11.7506925 C63.7265884,12.193908 63.3849482,12.5577086 62.9158785,12.8421053 C62.4468087,13.1265019 61.8872576,13.2686981 61.2372081,13.2686981 L61.2372081,13.2686981 Z M62.7441333,9.76731302 C62.7071987,9.33148443 62.5465355,8.98245745 62.2621389,8.72022161 C61.9777423,8.45798576 61.6324087,8.32686981 61.2261278,8.32686981 C61.0266808,8.32686981 60.8401638,8.36195717 60.666571,8.43213296 C60.4929783,8.50230875 60.3397019,8.60018404 60.2067372,8.72576177 C60.0737726,8.8513395 59.9648171,9.0027692 59.8798674,9.1800554 C59.7949178,9.35734161 59.7450568,9.55309219 59.7302829,9.76731302 L62.7441333,9.76731302 Z M70.695447,13.1578947 L69.2106825,13.1578947 L69.2106825,9.90027701 C69.2106825,9.43490072 69.1294275,9.09510726 68.9669152,8.88088643 C68.8044028,8.6666656 68.579105,8.55955679 68.2910149,8.55955679 C68.1432764,8.55955679 67.9918467,8.58910404 67.8367213,8.64819945 C67.6815958,8.70729485 67.5357062,8.79039651 67.3990481,8.89750693 C67.26239,9.00461734 67.1386609,9.13203989 67.027857,9.27977839 C66.9170531,9.4275169 66.8357982,9.59002681 66.7840897,9.76731302 L66.7840897,13.1578947 L65.2993251,13.1578947 L65.2993251,7.35180055 L66.6400454,7.35180055 L66.6400454,8.4265928 C66.8542662,8.05724654 67.1645124,7.76916078 67.5707933,7.56232687 C67.9770742,7.35549296 68.4350567,7.25207756 68.9447545,7.25207756 C69.3067138,7.25207756 69.6021864,7.31855889 69.8311811,7.45152355 C70.0601758,7.5844882 70.2374593,7.75807834 70.3630371,7.97229917 C70.4886148,8.18652 70.5754099,8.43028488 70.6234249,8.70360111 C70.6714399,8.97691734 70.695447,9.25392288 70.695447,9.53462604 L70.695447,13.1578947 Z M75.5331873,12.8587258 C75.3337403,12.9473689 75.0899754,13.0360106 74.8018854,13.1246537 C74.5137953,13.2132968 74.2109359,13.2576177 73.8932981,13.2576177 C73.6864642,13.2576177 73.4925603,13.2317639 73.3115806,13.1800554 C73.130601,13.1283469 72.9717845,13.0452453 72.8351264,12.9307479 C72.6984682,12.8162506 72.5895127,12.6685143 72.5082565,12.4875346 C72.4270004,12.306555 72.3863729,12.0867972 72.3863729,11.8282548 L72.3863729,8.49307479 L71.62183,8.49307479 L71.62183,7.35180055 L72.3863729,7.35180055 L72.3863729,5.46814404 L73.8711374,5.46814404 L73.8711374,7.35180055 L75.089974,7.35180055 L75.089974,8.49307479 L73.8711374,8.49307479 L73.8711374,11.3296399 C73.8711374,11.5364738 73.9246918,11.6823634 74.0318023,11.767313 C74.1389127,11.8522627 74.2700286,11.8947368 74.4251541,11.8947368 C74.5802795,11.8947368 74.7317092,11.868883 74.8794477,11.8171745 C75.0271862,11.765466 75.1453752,11.7211452 75.2340183,11.6842105 L75.5331873,12.8587258 Z M78.9637254,13.2686981 C78.4909621,13.2686981 78.0662203,13.1874431 77.6894871,13.0249307 C77.3127539,12.8624184 76.9932742,12.6426607 76.7310384,12.365651 C76.4688025,12.0886413 76.2675118,11.7691616 76.1271603,11.4072022 C75.9868087,11.0452429 75.9166339,10.6648219 75.9166339,10.265928 C75.9166339,9.85964709 75.9868087,9.47553274 76.1271603,9.11357341 C76.2675118,8.75161407 76.4688025,8.43213435 76.7310384,8.15512465 C76.9932742,7.87811496 77.3127539,7.65835723 77.6894871,7.49584488 C78.0662203,7.33333252 78.4909621,7.25207756 78.9637254,7.25207756 C79.4364886,7.25207756 79.8593837,7.33333252 80.2324234,7.49584488 C80.6054631,7.65835723 80.9230962,7.87811496 81.185332,8.15512465 C81.4475678,8.43213435 81.6488585,8.75161407 81.7892101,9.11357341 C81.9295617,9.47553274 81.9997364,9.85964709 81.9997364,10.265928 C81.9997364,10.6648219 81.9295617,11.0452429 81.7892101,11.4072022 C81.6488585,11.7691616 81.4494146,12.0886413 81.1908722,12.365651 C80.9323298,12.6426607 80.6146968,12.8624184 80.2379636,13.0249307 C79.8612304,13.1874431 79.4364886,13.2686981 78.9637254,13.2686981 L78.9637254,13.2686981 Z M77.4457198,10.265928 C77.4457198,10.5244704 77.4845006,10.7590017 77.5620633,10.9695291 C77.639626,11.1800565 77.7467348,11.3628801 77.8833929,11.5180055 C78.0200511,11.673131 78.1807143,11.7931667 78.3653874,11.8781163 C78.5500605,11.963066 78.7495045,12.0055402 78.9637254,12.0055402 C79.1779462,12.0055402 79.3773902,11.963066 79.5620633,11.8781163 C79.7467364,11.7931667 79.9073996,11.673131 80.0440578,11.5180055 C80.1807159,11.3628801 80.2878247,11.1782098 80.3653874,10.9639889 C80.4429501,10.7497681 80.4817309,10.51339 80.4817309,10.2548476 C80.4817309,10.0036922 80.4429501,9.77100753 80.3653874,9.5567867 C80.2878247,9.34256587 80.1807159,9.15789551 80.0440578,9.00277008 C79.9073996,8.84764465 79.7467364,8.72760892 79.5620633,8.64265928 C79.3773902,8.55770964 79.1779462,8.51523546 78.9637254,8.51523546 C78.7495045,8.51523546 78.5500605,8.55955634 78.3653874,8.64819945 C78.1807143,8.73684255 78.0200511,8.85872499 77.8833929,9.01385042 C77.7467348,9.16897584 77.639626,9.3536462 77.5620633,9.56786704 C77.4845006,9.78208787 77.4457198,10.0147725 77.4457198,10.265928 L77.4457198,10.265928 Z M86.5715487,8.63711911 C86.1209463,8.64450604 85.7183649,8.73130111 85.3637925,8.89750693 C85.0092201,9.06371274 84.754375,9.31301773 84.5992496,9.64542936 L84.5992496,13.1578947 L83.114485,13.1578947 L83.114485,7.35180055 L84.4773659,7.35180055 L84.4773659,8.59279778 C84.5807829,8.3933508 84.7026653,8.21422055 84.8430169,8.05540166 C84.9833685,7.89658277 85.1347981,7.75808 85.2973105,7.6398892 C85.4598229,7.52169839 85.6241795,7.43120992 85.7903853,7.36842105 C85.9565911,7.30563219 86.1172543,7.27423823 86.2723798,7.27423823 L86.4552052,7.27423823 C86.4958333,7.27423823 86.5346141,7.27793163 86.5715487,7.28531856 L86.5715487,8.63711911 Z" id="codementor" fill="#FFFFFF"></path>
                <path d="M101.684253,9.84398645 L101.684253,12.5074863 L103.261902,12.5074863 C103.791034,12.5074863 104.183007,12.3979284 104.437835,12.1788094 C104.692662,11.9596904 104.820074,11.6245245 104.820074,11.1733017 C104.820074,10.7188327 104.692662,10.3836668 104.437835,10.167794 C104.183007,9.95192122 103.791034,9.84398645 103.261902,9.84398645 L101.684253,9.84398645 Z M101.684253,6.85424441 L101.684253,9.04542343 L103.14017,9.04542343 C103.620609,9.04542343 103.978498,8.95534253 104.213848,8.77517802 C104.449198,8.59501351 104.566871,8.31990156 104.566871,7.94983392 C104.566871,7.58301249 104.449198,7.30871208 104.213848,7.12692447 C103.978498,6.94513685 103.620609,6.85424441 103.14017,6.85424441 L101.684253,6.85424441 Z M100.700657,6.04594282 L103.213209,6.04594282 C103.963083,6.04594282 104.540899,6.20175844 104.946675,6.51339434 C105.352451,6.82503025 105.555336,7.26813091 105.555336,7.84270961 C105.555336,8.28744002 105.451459,8.64127132 105.243702,8.90421411 C105.035944,9.16715691 104.730806,9.33108792 104.328276,9.39601207 C104.811961,9.49989071 105.187704,9.7165718 105.455516,10.0460618 C105.723328,10.3755519 105.857232,10.7870025 105.857232,11.280426 C105.857232,11.9296675 105.636493,12.431199 105.195009,12.7850356 C104.753525,13.1388722 104.125393,13.3157879 103.310595,13.3157879 L100.700657,13.3157879 L100.700657,6.04594282 Z M110.428302,6.7130351 C109.714136,6.7130351 109.14687,6.97922011 108.726486,7.51159812 C108.306102,8.04397612 108.095913,8.76949259 108.095913,9.68816927 C108.095913,10.6035998 108.306102,11.3274931 108.726486,11.8598711 C109.14687,12.3922492 109.714136,12.6584342 110.428302,12.6584342 C111.142467,12.6584342 111.708111,12.3922492 112.125248,11.8598711 C112.542386,11.3274931 112.750952,10.6035998 112.750952,9.68816927 C112.750952,8.76949259 112.542386,8.04397612 112.125248,7.51159812 C111.708111,6.97922011 111.142467,6.7130351 110.428302,6.7130351 L110.428302,6.7130351 Z M110.428302,5.91447208 C111.447611,5.91447208 112.262397,6.25613028 112.872684,6.93945693 C113.482971,7.62278358 113.78811,8.53901187 113.78811,9.68816927 C113.78811,10.8340805 113.482971,11.7486857 112.872684,12.4320123 C112.262397,13.115339 111.447611,13.4569972 110.428302,13.4569972 C109.405746,13.4569972 108.588526,13.1161505 107.976616,12.434447 C107.364706,11.7527434 107.058755,10.8373267 107.058755,9.68816927 C107.058755,8.53901187 107.364706,7.62278358 107.976616,6.93945693 C108.588526,6.25613028 109.405746,5.91447208 110.428302,5.91447208 L110.428302,5.91447208 Z M118.388395,6.7130351 C117.67423,6.7130351 117.106963,6.97922011 116.68658,7.51159812 C116.266196,8.04397612 116.056007,8.76949259 116.056007,9.68816927 C116.056007,10.6035998 116.266196,11.3274931 116.68658,11.8598711 C117.106963,12.3922492 117.67423,12.6584342 118.388395,12.6584342 C119.102561,12.6584342 119.668204,12.3922492 120.085342,11.8598711 C120.502479,11.3274931 120.711045,10.6035998 120.711045,9.68816927 C120.711045,8.76949259 120.502479,8.04397612 120.085342,7.51159812 C119.668204,6.97922011 119.102561,6.7130351 118.388395,6.7130351 L118.388395,6.7130351 Z M118.388395,5.91447208 C119.407704,5.91447208 120.22249,6.25613028 120.832777,6.93945693 C121.443064,7.62278358 121.748203,8.53901187 121.748203,9.68816927 C121.748203,10.8340805 121.443064,11.7486857 120.832777,12.4320123 C120.22249,13.115339 119.407704,13.4569972 118.388395,13.4569972 C117.36584,13.4569972 116.548619,13.1161505 115.936709,12.434447 C115.324799,11.7527434 115.018849,10.8373267 115.018849,9.68816927 C115.018849,8.53901187 115.324799,7.62278358 115.936709,6.93945693 C116.548619,6.25613028 117.36584,5.91447208 118.388395,5.91447208 L118.388395,5.91447208 Z M123.397701,6.04594282 L124.381297,6.04594282 L124.381297,9.11846273 L127.643719,6.04594282 L128.909734,6.04594282 L125.301592,9.43496636 L129.167806,13.3157879 L127.872575,13.3157879 L124.381297,9.81477073 L124.381297,13.3157879 L123.397701,13.3157879 L123.397701,6.04594282 Z M137.686677,6.28453787 L137.686677,7.24378735 C137.313363,7.06524594 136.961155,6.93215344 136.630042,6.84450584 C136.298929,6.75685824 135.979182,6.7130351 135.670792,6.7130351 C135.135168,6.7130351 134.722094,6.81691217 134.431559,7.02466945 C134.141023,7.23242672 133.995758,7.52782716 133.995758,7.91087963 C133.995758,8.23225416 134.092331,8.47490452 134.28548,8.63883799 C134.47863,8.80277146 134.844634,8.93505243 135.383504,9.03568486 L135.977557,9.15741702 C136.7112,9.29700394 137.252497,9.54290046 137.601464,9.89511396 C137.950432,10.2473275 138.124913,10.718832 138.124913,11.3096417 C138.124913,12.0140687 137.888755,12.5480618 137.416432,12.9116371 C136.944108,13.2752123 136.251865,13.4569972 135.339681,13.4569972 C134.995583,13.4569972 134.629578,13.4180433 134.241657,13.3401343 C133.853735,13.2622253 133.452023,13.1469867 133.036508,12.9944149 L133.036508,11.9816033 C133.435792,12.2055916 133.826954,12.3743919 134.210006,12.4880091 C134.593059,12.6016264 134.969613,12.6584342 135.339681,12.6584342 C135.901275,12.6584342 136.334637,12.5480648 136.63978,12.3273227 C136.944924,12.1065806 137.097493,11.7917032 137.097493,11.382681 C137.097493,11.0255982 136.987935,10.7464286 136.768816,10.5451637 C136.549697,10.3438989 136.190185,10.1929525 135.690269,10.0923201 L135.091347,9.97545719 C134.357704,9.82937786 133.826957,9.60052367 133.49909,9.28888776 C133.171223,8.97725186 133.007292,8.54388967 133.007292,7.98878821 C133.007292,7.34603916 133.233712,6.8396384 133.686558,6.46957076 C134.139404,6.09950312 134.763478,5.91447208 135.558799,5.91447208 C135.89965,5.91447208 136.246989,5.94531059 136.600826,6.00698853 C136.954663,6.06866647 137.316609,6.16118199 137.686677,6.28453787 L137.686677,6.28453787 Z M139.769541,6.04594282 L144.366148,6.04594282 L144.366148,6.87372156 L140.753137,6.87372156 L140.753137,9.02594628 L144.2152,9.02594628 L144.2152,9.85372502 L140.753137,9.85372502 L140.753137,12.4880091 L144.453795,12.4880091 L144.453795,13.3157879 L139.769541,13.3157879 L139.769541,6.04594282 Z M150.539213,6.28453787 L150.539213,7.24378735 C150.165899,7.06524594 149.813691,6.93215344 149.482578,6.84450584 C149.151465,6.75685824 148.831718,6.7130351 148.523329,6.7130351 C147.987704,6.7130351 147.574631,6.81691217 147.284095,7.02466945 C146.99356,7.23242672 146.848294,7.52782716 146.848294,7.91087963 C146.848294,8.23225416 146.944867,8.47490452 147.138017,8.63883799 C147.331166,8.80277146 147.69717,8.93505243 148.236041,9.03568486 L148.830094,9.15741702 C149.563737,9.29700394 150.105034,9.54290046 150.454001,9.89511396 C150.802968,10.2473275 150.977449,10.718832 150.977449,11.3096417 C150.977449,12.0140687 150.741291,12.5480618 150.268968,12.9116371 C149.796645,13.2752123 149.104401,13.4569972 148.192217,13.4569972 C147.848119,13.4569972 147.482115,13.4180433 147.094193,13.3401343 C146.706271,13.2622253 146.304559,13.1469867 145.889045,12.9944149 L145.889045,11.9816033 C146.288328,12.2055916 146.67949,12.3743919 147.062543,12.4880091 C147.445595,12.6016264 147.822149,12.6584342 148.192217,12.6584342 C148.753811,12.6584342 149.187173,12.5480648 149.492317,12.3273227 C149.79746,12.1065806 149.95003,11.7917032 149.95003,11.382681 C149.95003,11.0255982 149.840472,10.7464286 149.621353,10.5451637 C149.402234,10.3438989 149.042722,10.1929525 148.542806,10.0923201 L147.943883,9.97545719 C147.210241,9.82937786 146.679494,9.60052367 146.351627,9.28888776 C146.02376,8.97725186 145.859829,8.54388967 145.859829,7.98878821 C145.859829,7.34603916 146.086248,6.8396384 146.539094,6.46957076 C146.99194,6.09950312 147.616014,5.91447208 148.411335,5.91447208 C148.752187,5.91447208 149.099526,5.94531059 149.453362,6.00698853 C149.807199,6.06866647 150.169146,6.16118199 150.539213,6.28453787 L150.539213,6.28453787 Z M156.980089,6.28453787 L156.980089,7.24378735 C156.606776,7.06524594 156.254567,6.93215344 155.923454,6.84450584 C155.592341,6.75685824 155.272594,6.7130351 154.964205,6.7130351 C154.42858,6.7130351 154.015507,6.81691217 153.724971,7.02466945 C153.434436,7.23242672 153.28917,7.52782716 153.28917,7.91087963 C153.28917,8.23225416 153.385743,8.47490452 153.578893,8.63883799 C153.772042,8.80277146 154.138046,8.93505243 154.676917,9.03568486 L155.27097,9.15741702 C156.004613,9.29700394 156.54591,9.54290046 156.894877,9.89511396 C157.243844,10.2473275 157.418325,10.718832 157.418325,11.3096417 C157.418325,12.0140687 157.182167,12.5480618 156.709844,12.9116371 C156.237521,13.2752123 155.545277,13.4569972 154.633093,13.4569972 C154.288995,13.4569972 153.922991,13.4180433 153.535069,13.3401343 C153.147147,13.2622253 152.745435,13.1469867 152.329921,12.9944149 L152.329921,11.9816033 C152.729204,12.2055916 153.120366,12.3743919 153.503419,12.4880091 C153.886471,12.6016264 154.263026,12.6584342 154.633093,12.6584342 C155.194687,12.6584342 155.628049,12.5480648 155.933193,12.3273227 C156.238336,12.1065806 156.390906,11.7917032 156.390906,11.382681 C156.390906,11.0255982 156.281348,10.7464286 156.062229,10.5451637 C155.84311,10.3438989 155.483598,10.1929525 154.983682,10.0923201 L154.38476,9.97545719 C153.651117,9.82937786 153.12037,9.60052367 152.792503,9.28888776 C152.464636,8.97725186 152.300705,8.54388967 152.300705,7.98878821 C152.300705,7.34603916 152.527124,6.8396384 152.97997,6.46957076 C153.432816,6.09950312 154.05689,5.91447208 154.852211,5.91447208 C155.193063,5.91447208 155.540402,5.94531059 155.894238,6.00698853 C156.248075,6.06866647 156.610022,6.16118199 156.980089,6.28453787 L156.980089,6.28453787 Z M159.062954,6.04594282 L160.04655,6.04594282 L160.04655,13.3157879 L159.062954,13.3157879 L159.062954,6.04594282 Z M165.065594,6.7130351 C164.351428,6.7130351 163.784162,6.97922011 163.363778,7.51159812 C162.943394,8.04397612 162.733206,8.76949259 162.733206,9.68816927 C162.733206,10.6035998 162.943394,11.3274931 163.363778,11.8598711 C163.784162,12.3922492 164.351428,12.6584342 165.065594,12.6584342 C165.77976,12.6584342 166.345403,12.3922492 166.76254,11.8598711 C167.179678,11.3274931 167.388244,10.6035998 167.388244,9.68816927 C167.388244,8.76949259 167.179678,8.04397612 166.76254,7.51159812 C166.345403,6.97922011 165.77976,6.7130351 165.065594,6.7130351 L165.065594,6.7130351 Z M165.065594,5.91447208 C166.084903,5.91447208 166.899689,6.25613028 167.509976,6.93945693 C168.120263,7.62278358 168.425402,8.53901187 168.425402,9.68816927 C168.425402,10.8340805 168.120263,11.7486857 167.509976,12.4320123 C166.899689,13.115339 166.084903,13.4569972 165.065594,13.4569972 C164.043039,13.4569972 163.225818,13.1161505 162.613908,12.434447 C162.001998,11.7527434 161.696048,10.8373267 161.696048,9.68816927 C161.696048,8.53901187 162.001998,7.62278358 162.613908,6.93945693 C163.225818,6.25613028 164.043039,5.91447208 165.065594,5.91447208 L165.065594,5.91447208 Z M170.0749,6.04594282 L171.399346,6.04594282 L174.622814,12.1276819 L174.622814,6.04594282 L175.577194,6.04594282 L175.577194,13.3157879 L174.252748,13.3157879 L171.02928,7.23404877 L171.02928,13.3157879 L170.0749,13.3157879 L170.0749,6.04594282 Z" id="BOOK-SESSION" fill="#FFFFFF"></path>
            </g>
            <g id="Rectangle-3-+-Rectangle-4-+-Oval-3" transform="translate(4.431818, 5.540166)" sketch:type="MSShapeGroup">
                <rect id="Rectangle-3" stroke="#FFFFFF" stroke-width="1.10803324" x="1.10795455" y="0" width="9.97159091" height="6.64819945" rx="1.10803324"></rect>
                <rect id="Rectangle-4" fill="#FFFFFF" x="0" y="7.75623269" width="12.1875" height="1.10803324"></rect>
                <ellipse id="Oval-3" fill="#FFFFFF" cx="6.09375" cy="3.32409972" rx="1.2622267" ry="1.25437725"></ellipse>
            </g>
            <g id="arrowhead5" transform="translate(181.704545, 6.592794)" fill="#FFFFFF" sketch:type="MSShapeGroup">
                <path d="M0.921843938,0.477005281 C0.814722787,0.395383368 0.687983518,0.354572412 0.541314732,0.354572412 C0.394645947,0.354572412 0.267802878,0.395383368 0.160681727,0.477005281 C0.0535605756,0.558627193 0,0.655276395 0,0.766952887 L0,6.5405959 C0,6.6522724 0.0535605756,6.74900069 0.160681727,6.83054351 C0.267906678,6.91216542 0.394749746,6.95305547 0.541314732,6.95305547 C0.687879718,6.95305547 0.814722787,6.91216542 0.921843938,6.83054351 L4.71052806,3.943722 C4.81764922,3.86217918 4.87131359,3.76545089 4.87131359,3.6537744 C4.87131359,3.5420979 4.81764922,3.4454487 4.71052806,3.36382679 L0.921843938,0.477005281 Z" id="Shape"></path>
            </g>
        </g>
    </g>
</svg>