<?xml version="1.0" encoding="UTF-8" standalone="no"?>
<!DOCTYPE svg PUBLIC "-//W3C//DTD SVG 1.1//EN"
 "http://www.w3.org/Graphics/SVG/1.1/DTD/svg11.dtd">
<!-- Generated by graphviz version 2.38.0 (20140413.2041)
 -->
<!-- Title: packages_dhcpcanon Pages: 1 -->
<svg width="4790pt" height="44pt"
 viewBox="0.00 0.00 4789.50 44.00" xmlns="http://www.w3.org/2000/svg" xmlns:xlink="http://www.w3.org/1999/xlink">
<g id="graph0" class="graph" transform="scale(1 1) rotate(0) translate(4 40)">
<title>packages_dhcpcanon</title>
<polygon fill="white" stroke="none" points="-4,4 -4,-40 4785.5,-40 4785.5,4 -4,4"/>
<!-- 0 -->
<g id="node1" class="node"><title>0</title>
<polygon fill="none" stroke="black" points="454,-36 0,-36 0,-0 454,-0 454,-36"/>
<text text-anchor="middle" x="227" y="-14.3" font-family="Times,serif" font-size="14.00">/home/user/_my/code/dhcp&#45;related/dhcpcanon_upstream/dhcpcanon/__init__.py</text>
</g>
<!-- 1 -->
<g id="node2" class="node"><title>1</title>
<polygon fill="none" stroke="black" points="927.5,-36 472.5,-36 472.5,-0 927.5,-0 927.5,-36"/>
<text text-anchor="middle" x="700" y="-14.3" font-family="Times,serif" font-size="14.00">/home/user/_my/code/dhcp&#45;related/dhcpcanon_upstream/dhcpcanon/_version.py</text>
</g>
<!-- 2 -->
<g id="node3" class="node"><title>2</title>
<polygon fill="none" stroke="black" points="1414.5,-36 945.5,-36 945.5,-0 1414.5,-0 1414.5,-36"/>
<text text-anchor="middle" x="1180" y="-14.3" font-family="Times,serif" font-size="14.00">/home/user/_my/code/dhcp&#45;related/dhcpcanon_upstream/dhcpcanon/clientscript.py</text>
</g>
<!-- 3 -->
<g id="node4" class="node"><title>3</title>
<polygon fill="none" stroke="black" points="1883,-36 1433,-36 1433,-0 1883,-0 1883,-36"/>
<text text-anchor="middle" x="1658" y="-14.3" font-family="Times,serif" font-size="14.00">/home/user/_my/code/dhcp&#45;related/dhcpcanon_upstream/dhcpcanon/conflog.py</text>
</g>
<!-- 4 -->
<g id="node5" class="node"><title>4</title>
<polygon fill="none" stroke="black" points="2360.5,-36 1901.5,-36 1901.5,-0 2360.5,-0 2360.5,-36"/>
<text text-anchor="middle" x="2131" y="-14.3" font-family="Times,serif" font-size="14.00">/home/user/_my/code/dhcp&#45;related/dhcpcanon_upstream/dhcpcanon/constants.py</text>
</g>
<!-- 5 -->
<g id="node6" class="node"><title>5</title>
<polygon fill="none" stroke="black" points="2833,-36 2379,-36 2379,-0 2833,-0 2833,-36"/>
<text text-anchor="middle" x="2606" y="-14.3" font-family="Times,serif" font-size="14.00">/home/user/_my/code/dhcp&#45;related/dhcpcanon_upstream/dhcpcanon/dhcpcap.py</text>
</g>
<!-- 6 -->
<g id="node7" class="node"><title>6</title>
<polygon fill="none" stroke="black" points="3326.5,-36 2851.5,-36 2851.5,-0 3326.5,-0 3326.5,-36"/>
<text text-anchor="middle" x="3089" y="-14.3" font-family="Times,serif" font-size="14.00">/home/user/_my/code/dhcp&#45;related/dhcpcanon_upstream/dhcpcanon/dhcpcapfsm.py</text>
</g>
<!-- 7 -->
<g id="node8" class="node"><title>7</title>
<polygon fill="none" stroke="black" points="3825.5,-36 3344.5,-36 3344.5,-0 3825.5,-0 3825.5,-36"/>
<text text-anchor="middle" x="3585" y="-14.3" font-family="Times,serif" font-size="14.00">/home/user/_my/code/dhcp&#45;related/dhcpcanon_upstream/dhcpcanon/dhcpcaplease.py</text>
</g>
<!-- 8 -->
<g id="node9" class="node"><title>8</title>
<polygon fill="none" stroke="black" points="4320.5,-36 3843.5,-36 3843.5,-0 4320.5,-0 4320.5,-36"/>
<text text-anchor="middle" x="4082" y="-14.3" font-family="Times,serif" font-size="14.00">/home/user/_my/code/dhcp&#45;related/dhcpcanon_upstream/dhcpcanon/dhcpcaputils.py</text>
</g>
<!-- 9 -->
<g id="node10" class="node"><title>9</title>
<polygon fill="none" stroke="black" points="4781.5,-36 4338.5,-36 4338.5,-0 4781.5,-0 4781.5,-36"/>
<text text-anchor="middle" x="4560" y="-14.3" font-family="Times,serif" font-size="14.00">/home/user/_my/code/dhcp&#45;related/dhcpcanon_upstream/dhcpcanon/timers.py</text>
</g>
</g>
</svg>
