<?xml version="1.0" encoding="UTF-8" standalone="no"?>
<!-- Created with Inkscape (http://www.inkscape.org/) -->
<svg
   xmlns:svg="http://www.w3.org/2000/svg"
   xmlns="http://www.w3.org/2000/svg"
   version="1.0"
   width="712.85065"
   height="497.13638"
   id="svg1901">
  <defs
     id="defs1903" />
  <g
     transform="translate(-20.003235,-15.22256)"
     id="layer1"
     style="opacity:1">
    <path
       d="M 50,470.93361 L 670,470.93361 L 670,332.36218 L 577.14286,332.36218 L 577.14286,470.93361"
       id="path2380"
       style="fill:none;fill-rule:evenodd;stroke:#000000;stroke-width:1px;stroke-linecap:butt;stroke-linejoin:miter;stroke-opacity:1" />
    <path
       d="M 706.40704,332.34064 L 540.73582,331.62696 L 627.07153,280.95515 L 706.40704,332.34064 z"
       id="path2382"
       style="fill:none;fill-rule:evenodd;stroke:#000000;stroke-width:1.04307568px;stroke-linecap:butt;stroke-linejoin:miter;stroke-opacity:1" />
    <rect
       width="7.1428571"
       height="70.714287"
       x="578.57141"
       y="368.79074"
       id="rect2386"
       style="opacity:0.5;fill:#808080;stroke:none;stroke-width:2;stroke-linecap:butt;stroke-linejoin:miter;stroke-miterlimit:4;stroke-dasharray:none;stroke-opacity:1" />
    <path
       d="M 577.14286,403.07647 L 150,403.07647 L 150,403.07647"
       id="path2392"
       style="fill:none;fill-rule:evenodd;stroke:#000000;stroke-width:1px;stroke-linecap:butt;stroke-linejoin:miter;stroke-opacity:1" />
    <path
       d="M 542.90094,331.22878 C 543.32046,330.86293 562.61515,319.47653 585.77812,305.92568 L 627.8924,281.28775 L 629.93839,282.59259 C 648.42445,294.38255 703.74694,330.17195 704.61938,330.90545 C 705.60472,331.73401 692.55512,331.89397 623.96663,331.89397 C 575.11565,331.89397 542.44562,331.62589 542.90094,331.22877 L 542.90094,331.22878 z"
       id="path2394"
       style="opacity:0.5;fill:#4d4d4d;stroke:none;stroke-width:2;stroke-linecap:butt;stroke-linejoin:miter;stroke-miterlimit:4;stroke-dasharray:none;stroke-opacity:1" />
    <path
       d="M 578.22057,454.85826 L 578.21936,439.67969 L 581.97057,439.67969 L 585.72186,439.67969 L 585.90707,404.14397 L 586.09236,368.60826 L 582.15707,368.60826 L 578.22186,368.60826 L 578.22186,350.75112 L 578.22186,332.89397 L 623.579,332.89397 L 668.93615,332.89397 L 668.93615,401.4654 L 668.93615,470.03683 L 623.579,470.03683 L 578.22186,470.03683 L 578.22057,454.85826 z"
       id="path2396"
       style="opacity:0.5;fill:#e6e6e6;stroke:none;stroke-width:2;stroke-linecap:butt;stroke-linejoin:miter;stroke-miterlimit:4;stroke-dasharray:none;stroke-opacity:1" />
    <path
       d="M 578.22057,454.92969 L 578.21936,439.39397 L 581.97057,439.39397 L 585.72186,439.39397 L 585.72186,404.03683 L 585.72186,368.67969 L 581.97057,368.67969 L 578.21936,368.67969 L 578.22057,351.00112 L 578.22186,333.32255 L 623.579,333.32255 L 668.93615,333.32255 L 668.93615,401.89397 L 668.93615,470.4654 L 623.579,470.4654 L 578.22186,470.4654 L 578.22057,454.92969 z"
       id="path2398"
       style="opacity:0.5;fill:#ececec;stroke:none;stroke-width:2;stroke-linecap:butt;stroke-linejoin:miter;stroke-miterlimit:4;stroke-dasharray:none;stroke-opacity:1" />
    <path
       d="M 578.93615,404.03683 L 578.93615,369.03683 L 582.15043,369.03683 L 585.36472,369.03683 L 585.36472,404.03683 L 585.36472,439.03683 L 582.15043,439.03683 L 578.93615,439.03683 L 578.93615,404.03683 z"
       id="path2400"
       style="opacity:0.5;fill:#1a1a1a;stroke:none;stroke-width:2;stroke-linecap:butt;stroke-linejoin:miter;stroke-miterlimit:4;stroke-dasharray:none;stroke-opacity:1" />
    <path
       d="M 576.49951,403.14741 L 214.92906,226.57696"
       id="path2402"
       style="fill:#0000ff;fill-rule:evenodd;stroke:#0000ff;stroke-width:1.85812294;stroke-linecap:butt;stroke-linejoin:miter;stroke-miterlimit:4;stroke-dasharray:none;stroke-opacity:1" />
    <path
       d="M 576.46716,402.40077 L 313.53283,99.466446"
       id="path2404"
       style="fill:none;fill-rule:evenodd;stroke:#000000;stroke-width:1.92281389;stroke-linecap:butt;stroke-linejoin:miter;stroke-miterlimit:4;stroke-dasharray:none;stroke-opacity:1" />
    <path
       d="M 576.51297,402.44658 L 470.62989,64.420638"
       id="path2406"
       style="fill:none;fill-rule:evenodd;stroke:#ff0000;stroke-width:1.83119881;stroke-linecap:butt;stroke-linejoin:miter;stroke-miterlimit:4;stroke-dasharray:none;stroke-opacity:1" />
    <path
       d="M 450,256.6479 C 415.01587,276.97654 381.50606,349.0538 386.42857,403.79076"
       id="path2472"
       style="fill:none;fill-rule:evenodd;stroke:#000000;stroke-width:1px;stroke-linecap:butt;stroke-linejoin:miter;stroke-opacity:1" />
    <path
       d="M 352.85714,145.21932 C 318.59894,168.72455 284.2912,205.04811 270.71429,253.79075"
       id="path2474"
       style="fill:none;fill-rule:evenodd;stroke:#000000;stroke-width:1px;stroke-linecap:butt;stroke-linejoin:miter;stroke-opacity:1" />
    <path
       d="M 485.85414,113.26606 C 439.12522,120.78094 397.64485,135.63875 373.04674,166.46042"
       id="path2476"
       style="fill:none;fill-rule:evenodd;stroke:#000000;stroke-width:1.02986932px;stroke-linecap:butt;stroke-linejoin:miter;stroke-opacity:1" />
    <text
       x="302.85715"
       y="206.64789"
       id="text3250"
       xml:space="preserve"
       style="font-size:12px;font-style:normal;font-weight:normal;fill:#000000;fill-opacity:1;stroke:none;stroke-width:1px;stroke-linecap:butt;stroke-linejoin:miter;stroke-opacity:1;font-family:Bitstream Vera Sans"><tspan
         x="302.85715"
         y="206.64789"
         id="tspan3252">23.5 deg</tspan></text>
    <text
       x="417.75027"
       y="146.80292"
       id="text3254"
       xml:space="preserve"
       style="font-size:12px;font-style:normal;font-weight:normal;opacity:1;fill:#000000;fill-opacity:1;stroke:none;stroke-width:1px;stroke-linecap:butt;stroke-linejoin:miter;stroke-opacity:1;font-family:Bitstream Vera Sans"><tspan
         x="417.75027"
         y="146.80292"
         id="tspan3256">23.5 deg</tspan></text>
    <text
       x="260.71426"
       y="334.50504"
       id="text3258"
       xml:space="preserve"
       style="font-size:12px;font-style:normal;font-weight:normal;fill:#000000;fill-opacity:1;stroke:none;stroke-width:1px;stroke-linecap:butt;stroke-linejoin:miter;stroke-opacity:1;font-family:Bitstream Vera Sans"><tspan
         x="260.71426"
         y="334.50504"
         id="tspan3260">(90 deg - Local Latitude)</tspan></text>
    <text
       x="85.714287"
       y="226.64789"
       id="text3262"
       xml:space="preserve"
       style="font-size:12px;font-style:normal;font-weight:normal;fill:#000000;fill-opacity:1;stroke:none;stroke-width:1px;stroke-linecap:butt;stroke-linejoin:miter;stroke-opacity:1;font-family:Bitstream Vera Sans"><tspan
         x="85.714287"
         y="226.64789"
         id="tspan3264">Dec 21 (winter solstice)</tspan></text>
    <text
       x="197.14285"
       y="93.076469"
       id="text3266"
       xml:space="preserve"
       style="font-size:12px;font-style:normal;font-weight:normal;fill:#000000;fill-opacity:1;stroke:none;stroke-width:1px;stroke-linecap:butt;stroke-linejoin:miter;stroke-opacity:1;font-family:Bitstream Vera Sans"><tspan
         x="197.14285"
         y="93.076469"
         id="tspan3268">Mar 21, Sep 21 (equinox)</tspan></text>
    <text
       x="399.28574"
       y="56.647896"
       id="text3270"
       xml:space="preserve"
       style="font-size:12px;font-style:normal;font-weight:normal;fill:#000000;fill-opacity:1;stroke:none;stroke-width:1px;stroke-linecap:butt;stroke-linejoin:miter;stroke-opacity:1;font-family:Bitstream Vera Sans"><tspan
         x="399.28574"
         y="56.647896"
         id="tspan3272">June 21 (summer solstice)</tspan></text>
    <rect
       width="705.71423"
       height="495.71426"
       x="24.285713"
       y="12.362183"
       id="rect3276"
       style="opacity:0.5;fill:none;stroke:none;stroke-width:2;stroke-linecap:butt;stroke-linejoin:miter;stroke-miterlimit:4;stroke-dasharray:none;stroke-opacity:1" />
    <rect
       width="712.85065"
       height="497.13638"
       x="20.003235"
       y="15.22256"
       id="rect3280"
       style="opacity:0.5;fill:none;stroke:none;stroke-width:2.00647044;stroke-linecap:butt;stroke-linejoin:miter;stroke-miterlimit:4;stroke-dasharray:none;stroke-opacity:1" />
    <path
       d="M 483.67668,153.37383 C 410.75464,168.79963 359.59971,213.37483 326.15746,275.68288"
       transform="translate(20.003235,15.22256)"
       id="path2411"
       style="fill:none;fill-rule:evenodd;stroke:#000000;stroke-width:1px;stroke-linecap:butt;stroke-linejoin:miter;stroke-opacity:1" />
    <text
       x="428.62665"
       y="213.0724"
       id="text2413"
       xml:space="preserve"
       style="font-size:12px;font-style:normal;font-weight:normal;fill:#000000;fill-opacity:1;stroke:none;stroke-width:1px;stroke-linecap:butt;stroke-linejoin:miter;stroke-opacity:1;font-family:Bitstream Vera Sans"><tspan
         x="428.62665"
         y="213.0724"
         id="tspan2415">47 deg</tspan></text>
  </g>
</svg>
