<?xml version="1.0" encoding="UTF-8" standalone="no"?>
<svg
   xmlns:dc="http://purl.org/dc/elements/1.1/"
   xmlns:cc="http://creativecommons.org/ns#"
   xmlns:rdf="http://www.w3.org/1999/02/22-rdf-syntax-ns#"
   xmlns:svg="http://www.w3.org/2000/svg"
   xmlns="http://www.w3.org/2000/svg"
   xmlns:sodipodi="http://sodipodi.sourceforge.net/DTD/sodipodi-0.dtd"
   xmlns:inkscape="http://www.inkscape.org/namespaces/inkscape"
   version="1.1"
   id="Ebene_1"
   x="0px"
   y="0px"
   viewBox="0 0 150 150"
   enable-background="new 0 0 623.6 623.6"
   xml:space="preserve"
   inkscape:version="0.48.3.1 r9886"
   width="100%"
   height="100%"
   sodipodi:docname="hypershot.svg"
   inkscape:export-filename="hypershot-logo-150.png"
   inkscape:export-xdpi="90"
   inkscape:export-ydpi="90"><metadata
   id="metadata19"><rdf:RDF><cc:Work
       rdf:about=""><dc:format>image/svg+xml</dc:format><dc:type
         rdf:resource="http://purl.org/dc/dcmitype/StillImage" /><dc:title></dc:title></cc:Work></rdf:RDF></metadata><defs
   id="defs17" /><sodipodi:namedview
   pagecolor="#ffffff"
   bordercolor="#666666"
   borderopacity="1"
   objecttolerance="10"
   gridtolerance="10"
   guidetolerance="10"
   inkscape:pageopacity="0"
   inkscape:pageshadow="2"
   inkscape:window-width="1057"
   inkscape:window-height="984"
   id="namedview15"
   showgrid="false"
   inkscape:zoom="5.6133333"
   inkscape:cx="75"
   inkscape:cy="75"
   inkscape:window-x="82"
   inkscape:window-y="65"
   inkscape:window-maximized="0"
   inkscape:current-layer="layer1" />






<g
   inkscape:groupmode="layer"
   id="layer1"
   inkscape:label="solid"><path
     sodipodi:type="arc"
     style="fill:#ffffff;fill-opacity:1;fill-rule:nonzero;stroke:#ffffff;stroke-width:0.40000001000000002;stroke-linecap:round;stroke-linejoin:round;stroke-miterlimit:4;stroke-opacity:1;stroke-dasharray:none;stroke-dashoffset:0"
     id="path3078"
     sodipodi:cx="84.903198"
     sodipodi:cy="76.937897"
     sodipodi:rx="76.841179"
     sodipodi:ry="76.841179"
     d="m 161.74438,76.937897 a 76.841179,76.841179 0 1 1 -153.6823607,0 76.841179,76.841179 0 1 1 153.6823607,0 z"
     transform="matrix(0.94105517,0,0,0.94105517,-4.8985937,2.5971945)" /></g><g
   inkscape:groupmode="layer"
   id="layer2"
   inkscape:label="main"><g
     id="g2996"
     transform="matrix(0.25354083,0,0,0.25354083,-4.0667078,116.02291)"
     style="fill:#1133cc;fill-opacity:1"><path
       style="stroke:#ffffff;stroke-width:5;stroke-miterlimit:10;fill:#1133cc;fill-opacity:1"
       inkscape:connector-curvature="0"
       id="path3"
       d="m 437.1,-234.10002 c -18.6,-14 -38.9,-27.4 -60.5,-39.9 -21.7,-12.5 -43.4,-23.3 -64.8,-32.5 -35.5,-15.2 -70,-25.6 -101.6,-31.3 -68.6,-12.2 -123.3,-1.4 -143.9,34.2 l 0,0 c 49,-84.7 140.6,-141.7 245.5,-141.7 41.2,0 77.9,42 101.6,107.5 10.9,30.2 19.1,65.3 23.7,103.7 z"
       stroke-miterlimit="10" /><path
       style="stroke:#ffffff;stroke-width:5;stroke-miterlimit:10;fill:#1133cc;fill-opacity:1"
       inkscape:connector-curvature="0"
       id="path5"
       d="m 515,-161.80002 c -20.7,24.5 -47,49.2 -77.9,72.400001 2.8,-23.100001 4.3,-47.300001 4.3,-72.400001 0,-25.1 -1.5,-49.3 -4.3,-72.4 -4.6,-38.3 -12.8,-73.5 -23.7,-103.6 -23.7,-65.5 -60.4,-107.5 -101.6,-107.5 104.9,0 196.5,57 245.5,141.7 l 0,0 c 20.6,35.7 2.5,88.5 -42.3,141.8 z"
       stroke-miterlimit="10" /><path
       style="stroke:#ffffff;stroke-width:5;stroke-miterlimit:10;fill:#1133cc;fill-opacity:1"
       inkscape:connector-curvature="0"
       id="path7"
       d="m 595.3,-161.80002 c 0,51.6 -13.8,100.000001 -37.9,141.800001 l 0,0 c -20.6,35.7 -75.3,46.4 -143.9,34.2 -31.6,-5.5999995 -66.1,-16.0999995 -101.6,-31.3 21.4,-9.1 43.1,-20 64.8,-32.5 21.7,-12.5 41.9,-25.9 60.5,-39.9 30.9,-23.200001 57.2,-47.800001 77.9,-72.400001 44.8,-53.3 62.9,-106.1 42.3,-141.7 l 0,0 c 24.1,41.8 37.9,90.2 37.9,141.8 z"
       stroke-miterlimit="10" /><path
       style="stroke:#ffffff;stroke-width:5;stroke-miterlimit:10;fill:#1133cc;fill-opacity:1"
       inkscape:connector-curvature="0"
       id="path9"
       d="m 557.3,-20.000019 c -49,84.7 -140.6,141.699999 -245.5,141.699999 -41.2,0 -77.9,-41.999999 -101.6,-107.499999 -10.9,-30.2 -19.1,-65.3 -23.7,-103.6 18.6,14 38.9,27.4 60.5,39.9 21.7,12.5 43.4,23.4 64.8,32.5 35.5,15.2000005 70,25.7000005 101.6,31.3 68.6,12.1 123.3,1.3 143.9,-34.3 l 0,0 z"
       stroke-miterlimit="10" /><path
       style="stroke:#ffffff;stroke-width:5;stroke-miterlimit:10;fill:#1133cc;fill-opacity:1"
       inkscape:connector-curvature="0"
       id="path11"
       d="m 311.8,121.69998 c -104.9,0 -196.5,-56.999999 -245.5,-141.699999 l 0,0 c -20.6,-35.7 -2.5,-88.400001 42.3,-141.700001 20.7,-24.5 47,-49.2 77.9,-72.4 -2.8,23.1 -4.3,47.3 -4.3,72.4 0,25.1 1.5,49.3 4.3,72.400001 4.6,38.3 12.8,73.5 23.7,103.6 23.8,65.4 60.4,107.399999 101.6,107.399999 z"
       stroke-miterlimit="10" /><path
       style="stroke:#ffffff;stroke-width:5;stroke-miterlimit:10;fill:#1133cc;fill-opacity:1"
       inkscape:connector-curvature="0"
       id="path13"
       d="m 311.8,-306.50002 c -21.4,9.1 -43.1,20 -64.8,32.5 -21.7,12.5 -41.9,25.9 -60.5,39.9 -30.9,23.2 -57.2,47.8 -77.9,72.4 -44.8,53.3 -62.9,106.100001 -42.3,141.700001 l 0,0 c -24.1,-41.7 -37.9,-90.100001 -37.9,-141.800001 0,-51.7 13.8,-100 37.9,-141.8 l 0,0 c 20.6,-35.7 75.3,-46.4 143.9,-34.2 31.6,5.7 66.1,16.1 101.6,31.3 z"
       stroke-miterlimit="10" /></g><g
     id="g3049"
     transform="matrix(0.07104159,0,0,0.07104159,52.358583,52.358548)"
     style="fill:#808080;fill-opacity:1"><g
       id="g3005"
       style="fill:#808080;fill-opacity:1">
	<g
   id="g3007"
   style="fill:#808080;fill-opacity:1">
		<path
   id="path3009"
   d="M 596.715,0 V 31.74 H 528.308 V 0 H 500.323 V 58.037 H 137.079 V 0 H 109.094 V 31.74 H 40.686 V 0 H 12.701 v 637.414 h 27.985 v -31.74 h 68.408 v 31.74 h 27.985 v -58.023 h 363.256 v 58.023 h 27.985 v -31.74 h 68.407 v 31.74 h 27.985 V 0 H 596.715 z M 109.094,529.758 H 40.686 v -48.713 h 68.408 v 48.713 z m 0,-124.379 H 40.686 v -48.713 h 68.408 v 48.713 z m 0,-124.895 H 40.686 v -48.713 h 68.408 v 48.713 z m 0,-124.365 H 40.686 v -48.713 h 68.408 v 48.713 z M 500.323,514.535 H 137.079 V 122.879 h 363.256 v 391.656 h -0.012 z m 96.392,15.223 h -68.407 v -48.713 h 68.407 v 48.713 z m 0,-124.379 h -68.407 v -48.713 h 68.407 v 48.713 z m 0,-124.895 h -68.407 v -48.713 h 68.407 v 48.713 z m 0,-124.365 h -68.407 v -48.713 h 68.407 v 48.713 z"
   inkscape:connector-curvature="0"
   style="fill:#808080;fill-opacity:1" />
		<polygon
   id="polygon3011"
   points="414.262,318.714 240.427,182.529 240.427,454.887 "
   style="fill:#808080;fill-opacity:1" />
	</g>
</g><g
       id="g3013"
       style="fill:#808080;fill-opacity:1">
</g><g
       id="g3015"
       style="fill:#808080;fill-opacity:1">
</g><g
       id="g3017"
       style="fill:#808080;fill-opacity:1">
</g><g
       id="g3019"
       style="fill:#808080;fill-opacity:1">
</g><g
       id="g3021"
       style="fill:#808080;fill-opacity:1">
</g><g
       id="g3023"
       style="fill:#808080;fill-opacity:1">
</g><g
       id="g3025"
       style="fill:#808080;fill-opacity:1">
</g><g
       id="g3027"
       style="fill:#808080;fill-opacity:1">
</g><g
       id="g3029"
       style="fill:#808080;fill-opacity:1">
</g><g
       id="g3031"
       style="fill:#808080;fill-opacity:1">
</g><g
       id="g3033"
       style="fill:#808080;fill-opacity:1">
</g><g
       id="g3035"
       style="fill:#808080;fill-opacity:1">
</g><g
       id="g3037"
       style="fill:#808080;fill-opacity:1">
</g><g
       id="g3039"
       style="fill:#808080;fill-opacity:1">
</g><g
       id="g3041"
       style="fill:#808080;fill-opacity:1">
</g></g></g></svg>