<?xml version="1.0" encoding="UTF-8" standalone="no"?>
<svg
   xmlns:dc="http://purl.org/dc/elements/1.1/"
   xmlns:cc="http://creativecommons.org/ns#"
   xmlns:rdf="http://www.w3.org/1999/02/22-rdf-syntax-ns#"
   xmlns:svg="http://www.w3.org/2000/svg"
   xmlns="http://www.w3.org/2000/svg"
   xmlns:sodipodi="http://sodipodi.sourceforge.net/DTD/sodipodi-0.dtd"
   xmlns:inkscape="http://www.inkscape.org/namespaces/inkscape"
   version="1.1"
   id="Ebene_1"
   x="0px"
   y="0px"
   viewBox="0 0 150 150"
   xml:space="preserve"
   inkscape:version="0.48.3.1 r9886"
   width="100%"
   height="100%"
   sodipodi:docname="kybernetics.svg"
   inkscape:export-filename="kybernetics.png"
   inkscape:export-xdpi="90"
   inkscape:export-ydpi="90"><metadata
   id="metadata23"><rdf:RDF><cc:Work
       rdf:about=""><dc:format>image/svg+xml</dc:format><dc:type
         rdf:resource="http://purl.org/dc/dcmitype/StillImage" /><dc:title></dc:title></cc:Work></rdf:RDF></metadata><defs
   id="defs21">






</defs><sodipodi:namedview
   pagecolor="#ffffff"
   bordercolor="#666666"
   borderopacity="1"
   objecttolerance="10"
   gridtolerance="10"
   guidetolerance="10"
   inkscape:pageopacity="0"
   inkscape:pageshadow="2"
   inkscape:window-width="1100"
   inkscape:window-height="972"
   id="namedview19"
   showgrid="false"
   inkscape:zoom="4.0475767"
   inkscape:cx="75.000003"
   inkscape:cy="75"
   inkscape:window-x="116"
   inkscape:window-y="70"
   inkscape:window-maximized="0"
   inkscape:current-layer="Ebene_1" />
<style
   type="text/css"
   id="style3">
	.st0{fill:#009FE3;}
</style>
<path
   style="fill:#1133cc;fill-opacity:1"
   inkscape:connector-curvature="0"
   id="path9"
   d="m 147.35559,77.888441 0,-3.754981 -6.3546,-1.733068 c 0,-1.444223 -0.28884,-2.888446 -0.28884,-4.332669 l 6.06574,-2.599602 -0.57768,-3.75498 -6.64343,-0.57769 c -0.28884,-1.444223 -0.57769,-2.888446 -1.15538,-4.332669 l 5.48805,-3.754981 -1.15539,-3.466135 -6.64342,0.577689 c -0.57768,-1.444223 -1.15537,-2.599602 -1.73307,-4.043814 l 4.91037,-4.621514 -1.73307,-3.177291 -6.35458,1.733068 c -0.86655,-1.155379 -1.73307,-2.599602 -2.5996,-3.754981 l 4.04381,-5.488048 -2.31076,-2.888446 -6.06572,2.888446 c -1.15538,-1.155378 -2.31076,-2.310757 -3.1773,-3.466136 l 2.88845,-6.065737 -2.88845,-2.599602 -5.48804,4.043825 c -1.15538,-0.866534 -2.31077,-1.733068 -3.46614,-2.599602 l 1.73306,-6.354582 -3.17729,-2.021912 -4.62152,4.621514 c -1.44422,-0.577689 -2.59959,-1.444223 -4.04382,-2.021913 l 0.86653,-6.6434264 -3.466132,-1.4442232 -3.75498,5.4880486 c -1.444224,-0.57769 -2.888447,-0.866534 -4.33267,-1.155379 L 91.030873,3.9442232 87.275893,3.3665339 84.387446,9.4322715 C 82.943223,9.1434268 81.499,9.1434268 80.054777,8.8545822 L 78.032864,2.5 l -3.75498,0 -1.733068,6.3545822 c -1.444223,0 -2.888446,0.2888446 -4.33267,0.2888446 L 65.612545,3.0776893 61.857564,3.6553786 61.279875,10.298805 c -1.444223,0.288845 -2.888447,0.57769 -4.33267,1.155379 l -3.75498,-5.4880483 -3.466136,1.1553786 0.577689,6.6434267 c -1.444223,0.577689 -2.599601,1.155379 -4.043825,1.733068 l -4.621514,-4.910359 -3.177291,1.733068 1.733068,6.354582 c -1.155379,0.866534 -2.599602,1.733068 -3.754981,2.599602 l -5.488048,-3.754981 -2.888446,2.310758 2.888446,6.065737 c -1.155378,1.155379 -2.310757,2.021913 -3.466136,3.177291 l -6.065737,-2.888446 -2.599602,2.888446 4.043825,5.199204 c -0.866534,1.155378 -1.733068,2.310757 -2.599602,3.466136 l -6.354582,-2.021913 -2.021912,3.177291 4.621514,4.621515 c -0.577689,1.444223 -1.444223,2.599601 -2.021913,4.043813 l -6.6434259,-0.866534 -1.4442232,3.466136 5.4880481,3.75498 c -0.57769,1.444223 -0.866534,2.888447 -1.155379,4.33267 L 4.0886357,58.535849 3.5109464,63.157364 9.576684,66.04581 c -0.2888447,1.444223 -0.2888447,2.888447 -0.5776893,4.33267 l -6.3545822,1.444223 0,3.754981 6.3545822,1.733067 c 0,1.444224 0.2888446,2.888447 0.2888446,4.33267 l -6.0657375,2.599602 0.5776893,3.75498 6.6434259,0.57769 c 0.288845,1.444223 0.57769,2.888446 1.155379,4.332669 l -5.4880478,3.754981 1.1553786,3.466137 6.6434262,-0.577691 c 0.577689,1.444221 1.155379,2.599601 1.733068,4.043821 l -4.910359,4.62152 1.733068,3.17729 6.354582,-1.73307 c 0.866534,1.15538 1.733068,2.5996 2.599602,3.75498 l -4.043825,5.48805 2.310757,2.88845 6.065738,-2.88845 c 0.866533,1.15538 2.021912,2.02191 3.177291,3.17729 l -2.888447,6.06574 2.888447,2.5996 5.488048,-3.75498 c 1.155378,0.86653 2.310757,1.73307 3.466136,2.5996 l -1.733068,6.35458 3.177291,2.02192 4.621514,-4.62152 c 1.444223,0.57769 2.599602,1.44423 4.043825,2.02191 l -0.866534,6.64343 3.466136,1.44422 3.75498,-5.48804 c 1.444224,0.57769 2.888447,0.86653 4.33267,1.15538 l 0.577689,6.64342 3.754981,0.57769 2.888446,-6.06574 c 1.444223,0.28885 2.888447,0.28885 4.33267,0.57769 l 1.444223,6.64343 3.75498,0 1.733068,-6.35458 c 1.444225,0 2.888447,-0.28885 4.332671,-0.28885 l 2.599602,6.06574 3.75498,-0.57769 0.577689,-6.64343 c 1.444224,-0.28884 2.888447,-0.57768 4.33267,-1.15537 l 3.75498,5.48804 3.466136,-1.15537 -0.577689,-6.64343 c 1.444221,-0.57769 2.599601,-1.15538 4.043831,-1.73307 l 4.62152,4.91036 3.17729,-1.73307 -1.73307,-6.35458 c 1.15538,-0.86653 2.5996,-1.73307 3.75498,-2.5996 l 5.48805,4.04382 2.88844,-2.31075 -2.88844,-6.06574 c 1.15538,-0.86654 2.02191,-2.02191 3.17729,-3.17729 l 6.06574,2.88844 2.5996,-2.88844 -3.75498,-5.48805 c 0.86653,-1.15538 1.73307,-2.31076 2.5996,-3.46614 l 6.35458,2.02192 2.02191,-3.17729 -4.62151,-4.62152 c 0.57769,-1.44422 1.44422,-2.5996 2.0219,-4.04382 l 6.64344,0.86653 1.44421,-3.466136 -5.48804,-3.754981 c 0.57769,-1.444223 0.86653,-2.888446 1.15538,-4.332669 l 6.64343,-0.288845 0.57769,-3.75498 -6.06574,-2.888447 c 0.28884,-1.444223 0.28884,-2.888446 0.57768,-4.33267 l 6.64344,-2.599601 0,0 z M 75.144418,132.48008 c -31.772911,0 -57.480084,-25.70717 -57.480084,-57.480086 0,-31.772899 25.707173,-57.480072 57.480084,-57.480072 31.772912,0 57.480082,25.707173 57.480082,57.480072 0,31.772916 -25.70717,57.480086 -57.480082,57.480086 l 0,0 z"
   class="st0" />
<g
   id="g3816"
   transform="matrix(0.24822351,0,0,0.24822351,26.999306,26.999448)"
   style="fill:#1133cc;fill-opacity:1"><g
     id="g3774"
     style="fill:#1133cc;fill-opacity:1">
	<g
   id="g3776"
   style="fill:#1133cc;fill-opacity:1">
		<path
   id="path3778"
   d="m 376.717,99.329 c -6.755,-1.51 -13.967,3.125 -15.372,9.421 -0.391,1.489 -1.813,6.371 -5.212,12.938 L 265.029,30.586 c 7.481,-3.812 12.712,-5.022 12.85,-5.062 16.64,-3.903 10.707,-29.045 -5.957,-25.106 -1.032,0.252 -102.057,26.625 -85.457,170.831 -6.632,-0.432 -13.243,-0.64 -19.731,-0.64 -117.787,0 -162.859,74.027 -164.708,77.144 -8.812,14.855 13.501,27.352 22.133,13.24 0.685,-1.117 4.219,-6.678 11.328,-14.195 l 104.52,104.556 c -7.446,7.044 -13.024,10.604 -14.081,11.253 -14.661,8.73 -1.567,30.744 13.114,22.218 3.513,-2.102 85.434,-52.386 76.51,-184.503 105.631,12.262 160.172,-41.383 170.873,-85.563 1.607,-7.006 -2.866,-13.977 -9.706,-15.43 z M 187.878,254.381 132.436,198.927 c 17.69,-2.679 37.398,-3.213 57.024,-1.585 1.667,19.93 1.132,39.091 -1.582,57.039 z m -86.237,-48.608 79.032,79.491 c -7.914,23.425 -17.519,39.163 -24.28,47.047 L 54.602,230.165 c 17.591,-14.28 40.403,-21.415 47.039,-24.392 z m 109.5,-84.479 54.104,54.301 c -15.937,1.525 -33.777,0.991 -52.464,-1.525 -2.577,-19.011 -3.135,-36.752 -1.64,-52.776 z m 85.262,48.096 -79.39,-78.735 c 5.782,-18.687 14.087,-31.667 25.154,-43.34 l 97.691,96.263 -1.038,1.291 c -15.546,15.054 -35.788,23.398 -42.417,24.521 z"
   inkscape:connector-curvature="0"
   style="fill:#1133cc;fill-opacity:1" />
	</g>
</g><g
     id="g3780"
     style="fill:#1133cc;fill-opacity:1">
</g><g
     id="g3782"
     style="fill:#1133cc;fill-opacity:1">
</g><g
     id="g3784"
     style="fill:#1133cc;fill-opacity:1">
</g><g
     id="g3786"
     style="fill:#1133cc;fill-opacity:1">
</g><g
     id="g3788"
     style="fill:#1133cc;fill-opacity:1">
</g><g
     id="g3790"
     style="fill:#1133cc;fill-opacity:1">
</g><g
     id="g3792"
     style="fill:#1133cc;fill-opacity:1">
</g><g
     id="g3794"
     style="fill:#1133cc;fill-opacity:1">
</g><g
     id="g3796"
     style="fill:#1133cc;fill-opacity:1">
</g><g
     id="g3798"
     style="fill:#1133cc;fill-opacity:1">
</g><g
     id="g3800"
     style="fill:#1133cc;fill-opacity:1">
</g><g
     id="g3802"
     style="fill:#1133cc;fill-opacity:1">
</g><g
     id="g3804"
     style="fill:#1133cc;fill-opacity:1">
</g><g
     id="g3806"
     style="fill:#1133cc;fill-opacity:1">
</g><g
     id="g3808"
     style="fill:#1133cc;fill-opacity:1">
</g></g></svg>
